<svg xmlns="http://www.w3.org/2000/svg" viewBox="0 0 800 600" width="100%" height="100%">
  <!-- Background -->
  <rect width="800" height="600" fill="#f8f9fa" rx="10" ry="10"/>
  
  <!-- Dashboard window -->
  <rect x="100" y="50" width="600" height="500" fill="#ffffff" stroke="#e0e0e0" stroke-width="2" rx="5" ry="5"/>
  
  <!-- Dashboard header -->
  <rect x="100" y="50" width="600" height="60" fill="#00b894" rx="5" ry="5"/>
  <text x="150" y="85" font-family="Arial" font-size="18" fill="#ffffff" font-weight="bold">ClinicZetta - Sistema de Gestão de Consultórios</text>
  
  <!-- User profile -->
  <circle cx="650" cy="80" r="15" fill="#ffffff"/>
  <path d="M650 75 Q650 70 655 75 Q660 70 660 75 L660 85 Q655 90 650 85 Q645 90 640 85 Z" fill="#00b894"/>
  
  <!-- Sidebar -->
  <rect x="100" y="110" width="150" height="440" fill="#f1f2f6"/>
  
  <!-- Menu items -->
  <rect x="110" y="130" width="130" height="40" fill="#00b894" rx="5" ry="5"/>
  <text x="140" y="155" font-family="Arial" font-size="12" fill="#ffffff" text-anchor="left">Dashboard</text>
  
  <rect x="110" y="180" width="130" height="40" fill="#f1f2f6" rx="5" ry="5" stroke="#dfe4ea" stroke-width="1"/>
  <text x="140" y="205" font-family="Arial" font-size="12" fill="#2f3542" text-anchor="left">Pacientes</text>
  
  <rect x="110" y="230" width="130" height="40" fill="#f1f2f6" rx="5" ry="5" stroke="#dfe4ea" stroke-width="1"/>
  <text x="140" y="255" font-family="Arial" font-size="12" fill="#2f3542" text-anchor="left">Agenda</text>
  
  <rect x="110" y="280" width="130" height="40" fill="#f1f2f6" rx="5" ry="5" stroke="#dfe4ea" stroke-width="1"/>
  <text x="140" y="305" font-family="Arial" font-size="12" fill="#2f3542" text-anchor="left">Consultas</text>
  
  <rect x="110" y="330" width="130" height="40" fill="#f1f2f6" rx="5" ry="5" stroke="#dfe4ea" stroke-width="1"/>
  <text x="140" y="355" font-family="Arial" font-size="12" fill="#2f3542" text-anchor="left">Prontuários</text>
  
  <rect x="110" y="380" width="130" height="40" fill="#f1f2f6" rx="5" ry="5" stroke="#dfe4ea" stroke-width="1"/>
  <text x="140" y="405" font-family="Arial" font-size="12" fill="#2f3542" text-anchor="left">Financeiro</text>
  
  <rect x="110" y="430" width="130" height="40" fill="#f1f2f6" rx="5" ry="5" stroke="#dfe4ea" stroke-width="1"/>
  <text x="140" y="455" font-family="Arial" font-size="12" fill="#2f3542" text-anchor="left">Configurações</text>
  
  <!-- Main content -->
  <rect x="260" y="120" width="430" height="420" fill="#ffffff"/>
  
  <!-- Summary cards -->
  <rect x="270" y="130" width="130" height="90" fill="#ffffff" stroke="#dfe4ea" stroke-width="1" rx="5" ry="5"/>
  <text x="290" y="155" font-family="Arial" font-size="12" fill="#2f3542">Consultas Hoje</text>
  <text x="290" y="185" font-family="Arial" font-size="18" fill="#00b894" font-weight="bold">24</text>
  <path d="M290 195 L320 195" stroke="#dfe4ea" stroke-width="1"/>
  <text x="290" y="210" font-family="Arial" font-size="10" fill="#00b894">3 pendentes</text>
  
  <rect x="410" y="130" width="130" height="90" fill="#ffffff" stroke="#dfe4ea" stroke-width="1" rx="5" ry="5"/>
  <text x="430" y="155" font-family="Arial" font-size="12" fill="#2f3542">Novos Pacientes</text>
  <text x="430" y="185" font-family="Arial" font-size="18" fill="#00b894" font-weight="bold">8</text>
  <path d="M430 195 L460 195" stroke="#dfe4ea" stroke-width="1"/>
  <text x="430" y="210" font-family="Arial" font-size="10" fill="#00b894">+2 vs ontem</text>
  
  <rect x="550" y="130" width="130" height="90" fill="#ffffff" stroke="#dfe4ea" stroke-width="1" rx="5" ry="5"/>
  <text x="570" y="155" font-family="Arial" font-size="12" fill="#2f3542">Faturamento</text>
  <text x="570" y="185" font-family="Arial" font-size="18" fill="#00b894" font-weight="bold">R$ 4.850,00</text>
  <path d="M570 195 L600 195" stroke="#dfe4ea" stroke-width="1"/>
  <text x="570" y="210" font-family="Arial" font-size="10" fill="#00b894">+12% vs ontem</text>
  
  <!-- Calendar -->
  <text x="290" y="250" font-family="Arial" font-size="16" fill="#2f3542" font-weight="bold">Agenda do Dia</text>
  
  <!-- Calendar header -->
  <rect x="270" y="260" width="410" height="40" fill="#f1f2f6" rx="5" ry="5"/>
  <text x="290" y="285" font-family="Arial" font-size="14" fill="#2f3542" font-weight="bold">Segunda-feira, 15 de Maio de 2023</text>
  
  <!-- Calendar navigation -->
  <circle cx="640" cy="280" r="15" fill="#ffffff" stroke="#dfe4ea" stroke-width="1"/>
  <text x="640" y="285" font-family="Arial" font-size="14" fill="#2f3542" text-anchor="middle">›</text>
  
  <circle cx="610" cy="280" r="15" fill="#ffffff" stroke="#dfe4ea" stroke-width="1"/>
  <text x="610" y="285" font-family="Arial" font-size="14" fill="#2f3542" text-anchor="middle">‹</text>
  
  <!-- Appointment slots -->
  <rect x="270" y="310" width="410" height="60" fill="#ffffff" stroke="#dfe4ea" stroke-width="1" rx="5" ry="5"/>
  <text x="290" y="330" font-family="Arial" font-size="12" fill="#2f3542" font-weight="bold">08:00 - 08:45</text>
  <text x="290" y="350" font-family="Arial" font-size="12" fill="#2f3542">Maria Silva - Consulta de Rotina</text>
  <circle cx="650" cy="335" r="10" fill="#00b894"/>
  <text x="650" y="339" font-family="Arial" font-size="12" fill="#ffffff" text-anchor="middle">✓</text>
  
  <rect x="270" y="380" width="410" height="60" fill="#ffffff" stroke="#dfe4ea" stroke-width="1" rx="5" ry="5"/>
  <text x="290" y="400" font-family="Arial" font-size="12" fill="#2f3542" font-weight="bold">09:00 - 09:45</text>
  <text x="290" y="420" font-family="Arial" font-size="12" fill="#2f3542">João Pereira - Exame de Sangue</text>
  <circle cx="650" cy="405" r="10" fill="#00b894"/>
  <text x="650" y="409" font-family="Arial" font-size="12" fill="#ffffff" text-anchor="middle">✓</text>
  
  <rect x="270" y="450" width="410" height="60" fill="#ffffff" stroke="#dfe4ea" stroke-width="1" rx="5" ry="5"/>
  <text x="290" y="470" font-family="Arial" font-size="12" fill="#2f3542" font-weight="bold">10:00 - 10:45</text>
  <text x="290" y="490" font-family="Arial" font-size="12" fill="#2f3542">Ana Oliveira - Primeira Consulta</text>
  <circle cx="650" cy="475" r="10" fill="#ffa502"/>
  <text x="650" y="479" font-family="Arial" font-size="12" fill="#ffffff" text-anchor="middle">!</text>
  
  <!-- Quick actions -->
  <rect x="270" y="520" width="130" height="40" fill="#00b894" rx="5" ry="5"/>
  <text x="335" y="545" font-family="Arial" font-size="12" fill="#ffffff" text-anchor="middle">Nova Consulta</text>
  
  <rect x="410" y="520" width="130" height="40" fill="#ffffff" stroke="#00b894" stroke-width="2" rx="5" ry="5"/>
  <text x="475" y="545" font-family="Arial" font-size="12" fill="#00b894" text-anchor="middle">Novo Paciente</text>
  
  <rect x="550" y="520" width="130" height="40" fill="#ffffff" stroke="#00b894" stroke-width="2" rx="5" ry="5"/>
  <text x="615" y="545" font-family="Arial" font-size="12" fill="#00b894" text-anchor="middle">Relatórios</text>
</svg>