<svg xmlns="http://www.w3.org/2000/svg" viewBox="0 0 800 600" width="100%" height="100%">
  <!-- Background -->
  <rect width="800" height="600" fill="#f8f9fa" rx="10" ry="10"/>
  
  <!-- Dashboard window -->
  <rect x="100" y="50" width="600" height="500" fill="#ffffff" stroke="#e0e0e0" stroke-width="2" rx="5" ry="5"/>
  
  <!-- Dashboard header -->
  <rect x="100" y="50" width="600" height="60" fill="#6c5ce7" rx="5" ry="5"/>
  <text x="150" y="85" font-family="Arial" font-size="18" fill="#ffffff" font-weight="bold">VendasZetta - Sistema de Acompanhamento de Vendas</text>
  
  <!-- User profile -->
  <circle cx="650" cy="80" r="15" fill="#ffffff"/>
  <path d="M650 75 Q650 70 655 75 Q660 70 660 75 L660 85 Q655 90 650 85 Q645 90 640 85 Z" fill="#6c5ce7"/>
  
  <!-- Sidebar -->
  <rect x="100" y="110" width="150" height="440" fill="#f1f2f6"/>
  
  <!-- Menu items -->
  <rect x="110" y="130" width="130" height="40" fill="#6c5ce7" rx="5" ry="5"/>
  <text x="140" y="155" font-family="Arial" font-size="12" fill="#ffffff" text-anchor="left">Dashboard</text>
  
  <rect x="110" y="180" width="130" height="40" fill="#f1f2f6" rx="5" ry="5" stroke="#dfe4ea" stroke-width="1"/>
  <text x="140" y="205" font-family="Arial" font-size="12" fill="#2f3542" text-anchor="left">Vendas</text>
  
  <rect x="110" y="230" width="130" height="40" fill="#f1f2f6" rx="5" ry="5" stroke="#dfe4ea" stroke-width="1"/>
  <text x="140" y="255" font-family="Arial" font-size="12" fill="#2f3542" text-anchor="left">Produtos</text>
  
  <rect x="110" y="280" width="130" height="40" fill="#f1f2f6" rx="5" ry="5" stroke="#dfe4ea" stroke-width="1"/>
  <text x="140" y="305" font-family="Arial" font-size="12" fill="#2f3542" text-anchor="left">Clientes</text>
  
  <rect x="110" y="330" width="130" height="40" fill="#f1f2f6" rx="5" ry="5" stroke="#dfe4ea" stroke-width="1"/>
  <text x="140" y="355" font-family="Arial" font-size="12" fill="#2f3542" text-anchor="left">Equipe</text>
  
  <rect x="110" y="380" width="130" height="40" fill="#f1f2f6" rx="5" ry="5" stroke="#dfe4ea" stroke-width="1"/>
  <text x="140" y="405" font-family="Arial" font-size="12" fill="#2f3542" text-anchor="left">Relatórios</text>
  
  <rect x="110" y="430" width="130" height="40" fill="#f1f2f6" rx="5" ry="5" stroke="#dfe4ea" stroke-width="1"/>
  <text x="140" y="455" font-family="Arial" font-size="12" fill="#2f3542" text-anchor="left">Configurações</text>
  
  <!-- Main content -->
  <rect x="260" y="120" width="430" height="420" fill="#ffffff"/>
  
  <!-- Summary cards -->
  <rect x="270" y="130" width="130" height="90" fill="#ffffff" stroke="#dfe4ea" stroke-width="1" rx="5" ry="5"/>
  <text x="290" y="155" font-family="Arial" font-size="12" fill="#2f3542">Vendas Hoje</text>
  <text x="290" y="185" font-family="Arial" font-size="18" fill="#6c5ce7" font-weight="bold">R$ 12.450,00</text>
  <path d="M290 195 L320 195" stroke="#dfe4ea" stroke-width="1"/>
  <text x="290" y="210" font-family="Arial" font-size="10" fill="#6c5ce7">+15% vs ontem</text>
  
  <rect x="410" y="130" width="130" height="90" fill="#ffffff" stroke="#dfe4ea" stroke-width="1" rx="5" ry="5"/>
  <text x="430" y="155" font-family="Arial" font-size="12" fill="#2f3542">Vendas Mensais</text>
  <text x="430" y="185" font-family="Arial" font-size="18" fill="#6c5ce7" font-weight="bold">R$ 345.890,00</text>
  <path d="M430 195 L460 195" stroke="#dfe4ea" stroke-width="1"/>
  <text x="430" y="210" font-family="Arial" font-size="10" fill="#6c5ce7">+8% vs mês anterior</text>
  
  <rect x="550" y="130" width="130" height="90" fill="#ffffff" stroke="#dfe4ea" stroke-width="1" rx="5" ry="5"/>
  <text x="570" y="155" font-family="Arial" font-size="12" fill="#2f3542">Novos Clientes</text>
  <text x="570" y="185" font-family="Arial" font-size="18" fill="#6c5ce7" font-weight="bold">24</text>
  <path d="M570 195 L600 195" stroke="#dfe4ea" stroke-width="1"/>
  <text x="570" y="210" font-family="Arial" font-size="10" fill="#6c5ce7">+5 vs ontem</text>
  
  <!-- Chart title -->
  <text x="290" y="250" font-family="Arial" font-size="16" fill="#2f3542" font-weight="bold">Desempenho de Vendas - 2023</text>
  
  <!-- Bar chart -->
  <rect x="270" y="260" width="410" height="200" fill="#ffffff" stroke="#dfe4ea" stroke-width="1" rx="5" ry="5"/>
  
  <!-- Chart axes -->
  <path d="M290 440 L650 440" stroke="#a4b0be" stroke-width="1"/>
  <path d="M290 440 L290 280" stroke="#a4b0be" stroke-width="1"/>
  
  <!-- X-axis labels -->
  <text x="320" y="455" font-family="Arial" font-size="10" fill="#2f3542" text-anchor="middle">Jan</text>
  <text x="350" y="455" font-family="Arial" font-size="10" fill="#2f3542" text-anchor="middle">Fev</text>
  <text x="380" y="455" font-family="Arial" font-size="10" fill="#2f3542" text-anchor="middle">Mar</text>
  <text x="410" y="455" font-family="Arial" font-size="10" fill="#2f3542" text-anchor="middle">Abr</text>
  <text x="440" y="455" font-family="Arial" font-size="10" fill="#2f3542" text-anchor="middle">Mai</text>
  <text x="470" y="455" font-family="Arial" font-size="10" fill="#2f3542" text-anchor="middle">Jun</text>
  <text x="500" y="455" font-family="Arial" font-size="10" fill="#2f3542" text-anchor="middle">Jul</text>
  <text x="530" y="455" font-family="Arial" font-size="10" fill="#2f3542" text-anchor="middle">Ago</text>
  <text x="560" y="455" font-family="Arial" font-size="10" fill="#2f3542" text-anchor="middle">Set</text>
  <text x="590" y="455" font-family="Arial" font-size="10" fill="#2f3542" text-anchor="middle">Out</text>
  <text x="620" y="455" font-family="Arial" font-size="10" fill="#2f3542" text-anchor="middle">Nov</text>
  <text x="650" y="455" font-family="Arial" font-size="10" fill="#2f3542" text-anchor="middle">Dez</text>
  
  <!-- Y-axis labels -->
  <text x="280" y="440" font-family="Arial" font-size="10" fill="#2f3542" text-anchor="end">0</text>
  <text x="280" y="400" font-family="Arial" font-size="10" fill="#2f3542" text-anchor="end">100k</text>
  <text x="280" y="360" font-family="Arial" font-size="10" fill="#2f3542" text-anchor="end">200k</text>
  <text x="280" y="320" font-family="Arial" font-size="10" fill="#2f3542" text-anchor="end">300k</text>
  <text x="280" y="280" font-family="Arial" font-size="10" fill="#2f3542" text-anchor="end">400k</text>
  
  <!-- Bars -->
  <rect x="310" y="410" width="20" height="30" fill="#6c5ce7" rx="2" ry="2"/>
  <rect x="340" y="390" width="20" height="50" fill="#6c5ce7" rx="2" ry="2"/>
  <rect x="370" y="380" width="20" height="60" fill="#6c5ce7" rx="2" ry="2"/>
  <rect x="400" y="360" width="20" height="80" fill="#6c5ce7" rx="2" ry="2"/>
  <rect x="430" y="340" width="20" height="100" fill="#6c5ce7" rx="2" ry="2"/>
  <rect x="460" y="320" width="20" height="120" fill="#6c5ce7" rx="2" ry="2"/>
  <rect x="490" y="330" width="20" height="110" fill="#6c5ce7" rx="2" ry="2"/>
  <rect x="520" y="310" width="20" height="130" fill="#6c5ce7" rx="2" ry="2"/>
  <rect x="550" y="300" width="20" height="140" fill="#6c5ce7" rx="2" ry="2"/>
  <rect x="580" y="290" width="20" height="150" fill="#6c5ce7" rx="2" ry="2"/>
  <rect x="610" y="280" width="20" height="160" fill="#6c5ce7" rx="2" ry="2"/>
  <rect x="640" y="290" width="20" height="150" fill="#6c5ce7" rx="2" ry="2"/>
  
  <!-- Top Products Table -->
  <text x="290" y="490" font-family="Arial" font-size="14" fill="#2f3542" font-weight="bold">Produtos Mais Vendidos</text>
  
  <!-- Table header -->
  <rect x="270" y="500" width="410" height="30" fill="#f1f2f6" rx="5" ry="5"/>
  <text x="290" y="520" font-family="Arial" font-size="12" fill="#2f3542" font-weight="bold">Produto</text>
  <text x="450" y="520" font-family="Arial" font-size="12" fill="#2f3542" font-weight="bold">Vendas</text>
  <text x="550" y="520" font-family="Arial" font-size="12" fill="#2f3542" font-weight="bold">Receita</text>
  <text x="650" y="520" font-family="Arial" font-size="12" fill="#2f3542" font-weight="bold">%</text>
  
  <!-- Table rows -->
  <rect x="270" y="530" width="410" height="20" fill="#ffffff" rx="0" ry="0"/>
  <text x="290" y="545" font-family="Arial" font-size="11" fill="#2f3542">Smartphone XYZ Pro</text>
  <text x="450" y="545" font-family="Arial" font-size="11" fill="#2f3542">128</text>
  <text x="550" y="545" font-family="Arial" font-size="11" fill="#2f3542">R$ 153.600,00</text>
  <text x="650" y="545" font-family="Arial" font-size="11" fill="#2f3542">24%</text>
  
  <rect x="270" y="550" width="410" height="20" fill="#f8f9fa" rx="0" ry="0"/>
  <text x="290" y="565" font-family="Arial" font-size="11" fill="#2f3542">Notebook Ultra Slim</text>
  <text x="450" y="565" font-family="Arial" font-size="11" fill="#2f3542">85</text>
  <text x="550" y="565" font-family="Arial" font-size="11" fill="#2f3542">R$ 127.500,00</text>
  <text x="650" y="565" font-family="Arial" font-size="11" fill="#2f3542">20%</text>
  
  <rect x="270" y="570" width="410" height="20" fill="#ffffff" rx="0" ry="0"/>
  <text x="290" y="585" font-family="Arial" font-size="11" fill="#2f3542">Smart TV 55"</text>
  <text x="450" y="585" font-family="Arial" font-size="11" fill="#2f3542">64</text>
  <text x="550" y="585" font-family="Arial" font-size="11" fill="#2f3542">R$ 89.600,00</text>
  <text x="650" y="585" font-family="Arial" font-size="11" fill="#2f3542">14%</text>
</svg>